<?xml version="1.0" standalone="no"?><!DOCTYPE svg PUBLIC "-//W3C//DTD SVG 1.1//EN" "http://www.w3.org/Graphics/SVG/1.1/DTD/svg11.dtd"><svg t="1734855378218" class="icon" viewBox="0 0 1025 1024" version="1.1" xmlns="http://www.w3.org/2000/svg" p-id="13305" xmlns:xlink="http://www.w3.org/1999/xlink" width="200.1953125" height="200"><path d="M819.77772 611.55162A204.030316 204.030316 0 1 0 1023.808036 815.581936a204.030316 204.030316 0 0 0-204.030316-204.030316zM950.678891 844.833594l-125.416485 10.603726a31.811178 31.811178 0 0 1-23.766972-7.67856l-1.828229-1.828229a32.54247 32.54247 0 0 1-9.506789-20.476161l-5.484686-73.129145a32.54247 32.54247 0 1 1 65.08494-5.11904l2.925166 40.22103 92.508369-7.678561A32.54247 32.54247 0 1 1 950.678891 844.833594zM545.177779 53.210594h-93.970952a63.988002 63.988002 0 0 0-126.147776 0H231.0881a32.908115 32.908115 0 0 0-32.908116 32.908116v40.22103a33.273761 33.273761 0 0 0 32.908116 33.273761h314.089679a33.273761 33.273761 0 0 0 32.908116-33.273761v-40.22103a32.908115 32.908115 0 0 0-32.908116-32.908116z" fill="#1296db" p-id="13306"></path><path d="M776.265879 554.145241v-354.676356a93.605306 93.605306 0 0 0-93.239661-93.23966H632.567108v73.129145a32.908115 32.908115 0 0 1-33.273761 32.908116H176.972532a32.908115 32.908115 0 0 1-33.273761-32.908116v-73.129145H93.23966A93.605306 93.605306 0 0 0 0 199.468885v731.291455A93.605306 93.605306 0 0 0 93.23966 1024h561.631837a264.727506 264.727506 0 0 1 121.394382-468.757822z m-532.014533-146.258291a66.547522 66.547522 0 0 1-34.736344-58.868962 65.084939 65.084939 0 1 1 129.804233 0 68.741397 68.741397 0 0 1-34.736344 58.868962 109.693718 109.693718 0 0 1 77.516894 87.754974 12.066309 12.066309 0 0 1-9.506789 14.625829H176.24124a12.431955 12.431955 0 0 1-9.506788-14.625829 109.693718 109.693718 0 0 1 77.516894-88.486266z m226.334705 410.620151H206.589836a39.855384 39.855384 0 1 1 0-79.345122h263.996215a39.855384 39.855384 0 0 1 0 79.345122z m45.34007-171.1222H206.589836a39.855384 39.855384 0 1 1 0-79.345123h309.336285a39.855384 39.855384 0 0 1 0 79.345123z m53.749922-171.853492h-117.006633a39.855384 39.855384 0 0 1 0-79.345123h117.006633a39.855384 39.855384 0 1 1 0 79.345123z" fill="#1296db" p-id="13307"></path></svg>