<?xml version="1.0" standalone="no"?><!DOCTYPE svg PUBLIC "-//W3C//DTD SVG 1.1//EN" "http://www.w3.org/Graphics/SVG/1.1/DTD/svg11.dtd"><svg t="1734855261614" class="icon" viewBox="0 0 1024 1024" version="1.1" xmlns="http://www.w3.org/2000/svg" p-id="11072" xmlns:xlink="http://www.w3.org/1999/xlink" width="200" height="200"><path d="M527.714462 34.146462l5.238153 0.078769a51.2 51.2 0 0 1 12.36677 99.84v18.392615c12.209231 3.426462 23.315692 9.452308 31.901538 17.959385 9.846154 9.924923 21.779692 34.107077 25.324308 47.970461 132.253538 25.009231 242.727385 101.139692 302.710154 203.382154V413.538462c35.603692 19.731692 60.573538 35.131077 74.870153 46.158769 19.810462 15.281231 37.257846 48.679385 39.857231 68.332307l0.315077 4.647385v154.624c0 26.860308-12.091077 40.014769-34.500923 56.32-12.996923 9.452308-36.864 27.254154-71.640615 53.444923l-8.900923 6.695385v-28.750769c-74.043077 126.148923-224.846769 212.519385-398.848 212.519384-168.014769 0-314.368-80.502154-390.892308-199.522461v0.551384c-39.581538-19.731692-66.441846-34.737231-80.502154-44.937846-22.449231-16.305231-34.500923-29.459692-34.500923-56.32v-154.624c0-18.628923 18.707692-56.438154 40.172308-72.979692 12.996923-10.043077 34.776615-23.630769 65.378461-40.881231l4.844308-2.717538c67.111385-109.883077 193.024-188.455385 341.267692-204.012308l-0.984615 3.859692c3.465846-10.633846 2.56-37.060923 11.027692-45.528615 12.406154-12.406154 30.326154-19.456 48.955077-21.070769V133.12a51.2 51.2 0 0 1 11.421539-98.500923l5.12-0.472615z m-21.307077 198.734769c-176.285538 0-326.813538 92.672-390.892308 223.980307v283.017847c64.078769 131.308308 214.606769 224.019692 390.892308 224.019692 126.582154 0 239.931077-47.852308 317.44-123.431385-40.566154 24.182154-94.680615 42.535385-166.636308 46.316308l-0.748308-0.078769-1.102769-0.039385c-4.253538 19.771077-18.392615 29.302154-43.401846 29.302154h-77.312c-30.444308 0-47.694769-12.878769-47.694769-43.716923 0-32.098462 17.250462-43.795692 47.694769-43.835077h77.312c25.993846 0 40.251077 9.806769 43.874461 31.507692 168.172308-8.782769 229.060923-100.194462 249.42277-147.771077V474.584615c-58.801231-140.603077-214.803692-241.664-398.848-241.664z m-15.202462 161.240615l14.217846 0.315077 37.100308 1.299692c48.521846 2.008615 106.889846 6.774154 152.418461 25.836308 196.765538 82.510769 151.945846 207.005538 131.190154 278.843077-20.755692 71.876923-135.995077 87.355077-173.134769 87.355077-37.179077 0-100.509538-16.738462-153.915077-16.738462-53.405538 0-107.953231 21.897846-167.778461 16.738462l-12.760616-1.339077c-55.099077-7.010462-106.732308-30.129231-135.995077-113.585231-31.428923-89.915077 7.207385-169.511385 61.558154-210.392615 37.651692-28.278154 120.635077-69.592615 247.099077-68.332308z m-235.244308 84.086154c-55.256615 41.550769-80.541538 114.609231-54.823384 188.100923 24.654769 70.459077 63.684923 95.980308 131.899077 101.848615 23.236923 2.008615 42.850462 0.315077 79.438769-5.907692l28.238769-4.923077c26.781538-4.529231 40.566154-5.986462 58.368-5.986461 11.579077 0 23.867077 0.708923 37.454769 2.087384l10.436923 1.181539c8.979692 1.024 17.801846 2.244923 29.144616 3.938461l46.631384 7.010462c14.887385 2.048 21.700923 2.520615 30.247385 2.520615 62.385231 0 134.852923-24.930462 152.339692-67.662769l1.890462-5.435077 6.025846-20.676923c14.375385-50.609231 17.447385-85.149538 5.513846-119.965538-15.320615-44.622769-56.201846-83.022769-131.426461-114.609231-21.858462-9.137231-48.64-15.36-80.46277-19.337846l-11.421538-1.339077c-14.729846-1.575385-28.514462-2.56-48.876308-3.426462l-41.826461-1.536c-108.307692-3.702154-195.662769 24.142769-248.792616 64.118154z m144.147693 55.650462c18.865231 0 34.146462 15.281231 34.146461 34.107076v77.981539a34.146462 34.146462 0 0 1-68.292923 0v-77.981539c0-18.825846 15.281231-34.107077 34.146462-34.107076z m228.509538 0c18.865231 0 34.146462 15.281231 34.146462 34.107076v77.981539a34.146462 34.146462 0 0 1-68.253539 0v-77.981539c0-18.825846 15.281231-34.107077 34.107077-34.107076z" p-id="11073" fill="#1296db"></path></svg>