<?xml version="1.0" standalone="no"?><!DOCTYPE svg PUBLIC "-//W3C//DTD SVG 1.1//EN" "http://www.w3.org/Graphics/SVG/1.1/DTD/svg11.dtd"><svg t="1734855168636" class="icon" viewBox="0 0 1024 1024" version="1.1" xmlns="http://www.w3.org/2000/svg" p-id="9033" xmlns:xlink="http://www.w3.org/1999/xlink" width="200" height="200"><path d="M133.715968 316.2624c0 8.138752-6.598656 14.738432-14.738432 14.738432-8.139776 0-14.738432-6.59968-14.738432-14.738432v-99.028992c0-31.08864 12.708864-59.3408 33.180672-79.813632 20.472832-20.471808 48.724992-33.180672 79.813632-33.180672h98.055168c8.138752 0 14.738432 6.598656 14.738432 14.738432 0 8.139776-6.59968 14.738432-14.738432 14.738432h-98.055168c-22.95296 0-43.830272 9.401344-58.973184 24.544256s-24.544256 36.020224-24.544256 58.973184v99.028992z m575.857664-182.546432c-8.139776 0-14.738432-6.598656-14.738432-14.738432 0-8.139776 6.598656-14.738432 14.738432-14.738432h97.19296c31.08864 0 59.3408 12.708864 79.813632 33.180672 20.471808 20.472832 33.180672 48.724992 33.180672 79.813632v99.028992c0 8.138752-6.598656 14.738432-14.738432 14.738432-8.139776 0-14.738432-6.59968-14.738432-14.738432v-99.028992c0-22.95296-9.401344-43.830272-24.544256-58.973184s-36.020224-24.544256-58.973184-24.544256h-97.19296z m180.7104 574.231552c0-8.139776 6.598656-14.738432 14.738432-14.738432 8.139776 0 14.738432 6.598656 14.738432 14.738432v98.819072c0 31.08864-12.708864 59.3408-33.180672 79.813632-20.472832 20.471808-48.724992 33.180672-79.813632 33.180672h-97.62304c-8.139776 0-14.738432-6.598656-14.738432-14.738432 0-8.139776 6.598656-14.738432 14.738432-14.738432h97.62304c22.95296 0 43.830272-9.401344 58.973184-24.544256s24.544256-36.020224 24.544256-58.973184v-98.819072zM315.723776 890.284032c8.139776 0 14.738432 6.598656 14.738432 14.738432 0 8.139776-6.598656 14.738432-14.738432 14.738432h-98.490368c-31.08864 0-59.3408-12.708864-79.813632-33.180672-20.471808-20.472832-33.180672-48.724992-33.180672-79.813632v-97.952768c0-8.139776 6.598656-14.738432 14.738432-14.738432 8.139776 0 14.738432 6.598656 14.738432 14.738432v97.952768c0 22.95296 9.401344 43.830272 24.544256 58.973184s36.020224 24.544256 58.973184 24.544256h98.490368z" p-id="9034" fill="#1296db"></path><path d="M291.103744 286.277632c33.569792-7.150592 66.904064-15.492096 99.945472-25.030656 30.644224-8.846336 60.998656-18.813952 91.010048-29.883392 19.237888-7.150592 40.144896-7.235584 59.433984-0.241664 30.449664 11.085824 61.22496 21.118976 92.274688 30.08 32.698368 9.474048 65.667072 17.821696 98.864128 25.030656 16.894976 3.66592 29.041664 19.407872 29.073408 37.706752l0.365568 159.301632v1.885184c0 118.619136-83.272704 222.963712-249.88672 312.936448-166.658048-82.259968-249.889792-186.600448-249.889792-312.936448l-0.365568-160.945152c-0.04096-18.397184 12.169216-34.265088 29.174784-37.90336z m177.800192 151.58784l60.050432 203.613184c2.29376 7.876608 8.999936 13.323264 16.688128 13.551616 7.66976 0.22528 14.630912-4.825088 17.324032-12.565504l39.677952-113.298432h78.569472c8.039424 0 15.463424-4.615168 19.483648-12.116992 4.016128-7.498752 4.016128-16.723968 0-24.225792-4.00384-7.48544-11.435008-12.105728-19.483648-12.112896h-97.242112c-7.510016-0.007168-14.23872 5.006336-16.862208 12.596224l-18.80576 53.690368-61.76768-209.291264c-2.368512-7.952384-9.23136-13.371392-17.014784-13.436928-7.784448-0.033792-14.710784 5.30432-17.161216 13.232128l-42.279936 137.623552h-67.294208c-8.035328 0-15.463424 4.620288-19.480576 12.112896-4.018176 7.498752-4.018176 16.726016 0 24.225792 4.000768 7.491584 11.431936 12.112896 19.480576 12.123136h99.811328l26.30656-85.786624v0.065536z" p-id="9035" fill="#1296db"></path></svg>