<?xml version="1.0" standalone="no"?><!DOCTYPE svg PUBLIC "-//W3C//DTD SVG 1.1//EN" "http://www.w3.org/Graphics/SVG/1.1/DTD/svg11.dtd"><svg t="1734854941438" class="icon" viewBox="0 0 1024 1024" version="1.1" xmlns="http://www.w3.org/2000/svg" p-id="7721" xmlns:xlink="http://www.w3.org/1999/xlink" width="200" height="200"><path d="M109.395053 1009.33129c-20.9692-3.259713-33.594508-11.360344-48.226728-30.894297-10.107544-13.501051-17.575693-34.531067-19.959662-56.315196-0.498687-4.524677-0.632482-77.539821-0.498688-257.103802l0.243262-250.827638 1.386595-7.151908c1.824466-9.353431 5.217974-19.400159 8.356056-24.678948 2.761026-4.707123 8.660134-11.992826 20.215087-25.177636 4.208436-4.767939 27.622421-28.121108 52.045945-51.985129l44.383185-43.264179H691.411991l34.15401 41.561344c18.828493 22.793667 36.73259 44.200739 39.736878 47.521267 8.599318 9.292615 22.355795 25.676324 24.739764 29.446888 6.908646 10.740025 10.545416 26.491252 11.299529 48.46999l0.377056 11.615769-2.006913 1.131169c-6.020739 3.515139-20.847569 15.629595-121.363503 99.883453l-22.416611 18.77984 5.838293 7.601944c22.477426 29.325256 171.46335 223.132238 171.974201 223.76472 0.936559 1.191985-3.332692 5.278789-18.962288 18.341968l-13.18481 10.983288-0.060816 4.524676v4.512514l49.163288 0.19461 49.090309 0.255425 6.470774 1.690672c36.915036 9.730487 62.59136 40.807231 66.118661 80.045422 4.074642 46.779318-27.257528 89.411016-71.385288 97.122427-4.840917 0.814928-50.671513 0.936559-395.73892 0.875744-328.999941-0.048652-391.153429-0.170284-395.860552-0.924397z m658.863462-89.094775v-63.722529h-44.821058c-28.826569 0-46.584708 0.255425-49.783606 0.693298-20.032641 2.761026-37.170462 15.386333-46.341446 34.15401-7.285702 14.814667-8.854743 30.383447-4.707123 45.453539 1.690672 6.093718 6.276164 16.140446 9.487225 20.908385 8.976375 13.18481 25.043842 23.35317 40.430175 25.554692 2.067729 0.316241 24.484339 0.571666 49.783606 0.632482l45.96439 0.060816v-63.734693z m-196.823433-25.238451c9.2318-43.06957 40.746416-77.479006 81.127938-88.462293 12.746938-3.454323 13.622682-3.515139 52.423001-3.83138l36.221739-0.316241 10.362969-8.733112c9.292615-7.845205 10.350806-8.915559 9.669672-9.925097-6.349143-8.733112-132.03055-171.46335-132.480586-171.46335-1.629857 0-111.134329 94.300586-119.855278 103.155329-13.878108 14.182185-22.732851 32.39036-26.05338 53.675801-1.264963 8.222262-1.44741 27.938662-0.31624 36.53798 3.138082 23.608595 11.360344 42.193826 25.615508 58.200477 10.362969 11.615769 28.75359 24.107282 45.076482 30.638872 3.63677 1.508226 15.313354 5.144995 16.699949 5.27879 0.243262 0.072979 0.875744-2.128544 1.508226-4.755776zM270.373803 690.378078c12.86857-2.89482 24.739764-12.746938 30.833482-25.676324 4.901733-10.423785 4.585492-6.215349 4.767939-66.678164l0.255425-54.186652h51.036406c55.123211 0 56.25438-0.060816 64.427989-3.320528 18.524415-7.541128 30.760503-25.554692 30.760504-45.465703 0-21.844944-13.501051-40.186913-34.847308-47.338821l-4.390883-1.508225-53.493354-0.182447-53.493354-0.19461-0.19461-54.125835-0.182447-54.125836-1.44741-4.707124c-5.217974-16.894559-17.891934-29.446887-34.032379-33.716138-6.081555-1.569041-16.505339-1.44741-22.854482 0.377056-14.437611 4.013826-27.123734 15.447149-32.463339 29.264441-3.63677 9.292615-3.697585 10.740025-3.697585 66.301108v50.732328l-52.556795 0.19461c-58.893775 0.255425-55.123211-0.060816-65.169939 4.901733-18.329806 9.03719-29.446887 29.629334-26.746677 49.722791 2.955636 21.978738 19.144734 39.116559 40.36936 42.570882 2.444785 0.377056 22.915298 0.632482 53.992041 0.632481h50.039031l0.182447 53.237929c0.19461 52.556795 0.255425 53.237929 1.569041 58.078847 0.754113 2.639395 2.761026 7.468149 4.390883 10.667047 2.383969 4.707123 4.013826 6.835667 8.660133 11.433322 6.397795 6.409959 11.554954 9.669672 18.840657 11.992826 8.927722 2.809678 16.27424 3.125919 25.445224 1.119006z m0 0" p-id="7722" fill="#1296db"></path><path d="M818.115099 729.178396c-8.283077-10.922472-38.617872-51.048569-67.310646-89.15559-28.75359-38.046206-52.423001-69.572985-52.544632-69.998694-0.133794-0.377056 5.023364-5.157158 11.494138-10.4846 6.470774-5.339605 30.821319-25.676324 54.125836-45.149461 23.292354-19.52179 44.954852-37.292093 48.032119-39.615247 14.510589-10.667047 28.498165-17.271615 43.641235-20.531328 7.662759-1.629857 28.194087-1.629857 35.796031 0 13.938923 3.077267 31.392985 10.423785 43.641236 18.4636 22.915298 15.070092 37.729965 35.917661 44.516979 62.664338 3.259713 13.002364 3.770564 17.636508 3.83138 35.783868 0 15.264702-0.121631 17.648671-1.44741 24.046466-4.707123 23.35317-14.875483 40.490991-34.154011 57.507181C928.495315 669.712955 859.992684 727.35393 836.007033 746.814905l-2.882657 2.323153-15.009277-19.959662zM157.670433 201.846797c-11.7374-2.444785-20.336719-10.229175-25.360083-22.854482-3.709748-9.353431-3.831379-11.044103-3.831379-62.846785 0-49.72279 0.255425-55.244842 2.89482-64.355011 2.006913-6.908646 3.770564-10.362969 8.416872-16.140446 8.854743-10.922472 16.639133-16.201261 29.568518-20.020478l4.646308-1.386594 244.551473-0.121631c269.595315-0.19461 248.820725-0.498687 260.181069 3.636769 6.835667 2.517764 12.369882 6.349143 19.339344 13.683498 6.470774 6.774852 9.292615 11.056266 11.494138 17.454062 3.393507 9.608856 3.454323 11.299528 3.454323 66.361924 0 55.634061 0.060816 54.685339-3.770564 64.233379-3.575954 9.03719-10.046728 16.82158-16.566155 19.898847-7.979 3.770564 11.798216 3.515139-271.736022 3.454323-227.109575-0.060816-259.451282-0.121631-263.282662-0.997375z m0 0" p-id="7723" fill="#1296db"></path></svg>